PathFileType	4	(X/Y/Z)	C:\Users\Basilio\Documents\Thesis Gigler\squatting_fais\c3dfiles\038\SJ_pre1\markers_experimental.trc
DataRate	CameraRate	NumFrames	NumMarkers	Units	OrigDataRate	OrigDataStartFrame	OrigNumFrames
200.000000	200.000000	4	61	mm	200.000000	512	1366
Frame#	Time	FHD			LBHD			RBHD			C7			T10			CLAV			LSHO			LUUPA			LMUPA			LDUPA			LLEP			LMEP			LRAD			LUL			LRFIN			RSHO			RUPA1			RMUPA			RDUPA			RLEP			RMEP			RRAD			RUL			RUFIN			LASI			RASI			USACR			LSACR			RSACR			LTHI1			LTHI2			LTHI3			LTHI4			LLFC			LMFC			LTIB1			LTIB2			LTIB3			LTIB4			LLMAL			LMMAL			LHEE			LMT1			LMT2			LMT5			RTHI			RTHI2			RTHI3			RTHI4			RLFC			RMFC			RTIB1			RTIB2			RTIB3			RTIB4			RLMAL			RMMAL			RHEE			RMT1			RMT2			RMT5			
		X1	Y1	Z1	X2	Y2	Z2	X3	Y3	Z3	X4	Y4	Z4	X5	Y5	Z5	X6	Y6	Z6	X7	Y7	Z7	X8	Y8	Z8	X9	Y9	Z9	X10	Y10	Z10	X11	Y11	Z11	X12	Y12	Z12	X13	Y13	Z13	X14	Y14	Z14	X15	Y15	Z15	X16	Y16	Z16	X17	Y17	Z17	X18	Y18	Z18	X19	Y19	Z19	X20	Y20	Z20	X21	Y21	Z21	X22	Y22	Z22	X23	Y23	Z23	X24	Y24	Z24	X25	Y25	Z25	X26	Y26	Z26	X27	Y27	Z27	X28	Y28	Z28	X29	Y29	Z29	X30	Y30	Z30	X31	Y31	Z31	X32	Y32	Z32	X33	Y33	Z33	X34	Y34	Z34	X35	Y35	Z35	X36	Y36	Z36	X37	Y37	Z37	X38	Y38	Z38	X39	Y39	Z39	X40	Y40	Z40	X41	Y41	Z41	X42	Y42	Z42	X43	Y43	Z43	X44	Y44	Z44	X45	Y45	Z45	X46	Y46	Z46	X47	Y47	Z47	X48	Y48	Z48	X49	Y49	Z49	X50	Y50	Z50	X51	Y51	Z51	X52	Y52	Z52	X53	Y53	Z53	X54	Y54	Z54	X55	Y55	Z55	X56	Y56	Z56	X57	Y57	Z57	X58	Y58	Z58	X59	Y59	Z59	X60	Y60	Z60	X61	Y61	Z61	

513	2.56	22.43126869201661	1219.854370117188	-928.9125976562502	-133.7093048095703	1160.664672851563	-984.7512207031252	-118.6221313476563	1148.664916992188	-839.3760375976565	-175.9279937744141	1045.532470703125	-901.5648193359377	-361.1013488769532	839.8662719726565	-882.3198852539065	-66.8585662841797	943.318298339844	-923.8602294921877	-90.42104339599611	1001.004577636719	-1079.963256835938	-172.0287780761719	898.966003417969	-1274.846923828125	-161.8826446533203	850.8234863281252	-1263.60791015625	-191.3121185302735	844.573425292969	-1314.336669921875	-219.1754150390626	790.997741699219	-1337.240112304688	-296.7692260742188	824.6790771484377	-1344.826293945313	-397.0848693847657	673.4381713867189	-1118.872192382813	-344.9225158691407	627.9125366210939	-1144.596435546875	-380.4615783691407	654.9889526367189	-1045.249267578125	-40.57481384277344	988.8496704101565	-768.2874145507815	-64.30486297607423	865.5801391601565	-581.8973999023439	-76.06301116943361	819.5603027343752	-589.0015869140626	-83.10931396484376	822.2129516601565	-529.4580688476564	-114.5554428100586	762.5878906250001	-494.2420654296876	-186.4603271484375	800.4069824218752	-465.5120849609376	-300.5409851074219	662.7791748046876	-679.0495605468751	-247.2593231201172	615.5628662109376	-674.9436645507814	-312.5520629882813	635.5978393554689	-754.8234863281251	-367.4836425781251	625.1685180664064	-1003.664794921875	-339.9118347167969	627.0560913085939	-755.1333618164064	-483.7677001953126	732.6329956054689	-864.8098144531252	-516.1716918945314	712.7181396484376	-887.643249511719	-504.867645263672	713.0874633789064	-831.6542968750002	-322.8164672851563	545.0989379882814	-1168.93896484375	-245.1334686279297	540.2200317382814	-1209.088012695313	-215.2164154052735	570.3060913085939	-1184.971557617188	-219.5992584228516	487.939910888672	-1228.563110351563	-175.853988647461	451.4187927246095	-1240.363647460938	-131.3651123046875	433.2055053710939	-1140.041625976563	-167.3225860595703	277.0595092773438	-1163.946044921875	-242.1180725097657	253.2809295654297	-1206.416259765625	-206.2513885498047	239.3979797363282	-1185.787109375	-237.9068908691407	174.6919708251953	-1137.838623046875	-368.8083801269532	83.4268035888672	-1121.453002929688	-309.0218811035157	96.56509399414065	-1061.243530273438	-405.0483703613282	44.19196701049805	-1055.314086914063	-204.022933959961	45.53206634521485	-1124.028686523438	-217.5676574707032	50.10875701904298	-1172.955200195313	-270.6636047363282	31.37654495239259	-1204.98828125	-299.2981262207032	519.2980957031251	-640.0957031250001	-234.9342956542969	520.4730834960939	-622.5344848632814	-215.2689208984376	549.2297973632814	-629.3131713867189	-183.9144744873047	450.8514099121095	-617.8543701171876	-96.29578399658206	402.5211486816407	-613.5945434570314	-74.04886627197267	401.9817199707032	-727.0460815429689	-121.2202224731446	247.4126281738282	-658.4986572265626	-237.5475158691407	221.4129943847657	-651.8788452148439	-194.5411987304688	201.4309234619141	-655.5191040039064	-204.3882141113282	154.346176147461	-688.5281982421876	-330.0037536621094	89.67846679687501	-692.7196044921876	-277.9485473632813	84.9114227294922	-761.5356445312501	-377.2236633300782	41.29089355468751	-772.869567871094	-179.5788116455078	46.57090759277344	-678.0838623046876	-199.6995391845704	52.70877075195314	-637.0089111328126	-257.7868957519532	36.65158462524415	-611.1935424804689	
514	2.565	22.91612243652344	1218.921997070313	-928.839294433594	-133.6415710449219	1159.644165039063	-984.7794189453127	-118.3075027465821	1147.744995117188	-839.5438232421877	-175.7319641113282	1044.405883789063	-901.5153808593752	-361.0072631835938	839.196960449219	-882.298767089844	-66.69207763671876	942.0289306640627	-924.1021118164065	-90.46721649169923	1000.09619140625	-1079.94873046875	-171.9813842773438	897.9908447265627	-1274.90673828125	-161.9004058837891	850.097106933594	-1263.575561523438	-191.2640991210938	843.751892089844	-1314.37109375	-219.2330017089844	790.2905883789065	-1337.358642578125	-296.8054199218751	824.1597900390627	-1344.894409179688	-397.065399169922	672.9553833007814	-1118.782592773438	-345.0491027832032	627.3460693359376	-1144.483642578125	-380.6393127441407	654.4926147460939	-1045.114379882813	-40.34722900390626	988.0300292968752	-768.412780761719	-63.88436508178712	864.538269042969	-582.1575317382814	-75.76240539550783	818.6250000000002	-589.2190551757814	-82.99510955810548	821.0290527343752	-529.4680175781251	-114.5555191040039	761.8563842773439	-494.1655883789064	-186.3535461425782	799.7773437500002	-465.4032287597657	-300.6583251953126	662.3248901367189	-679.2142333984376	-247.3741149902344	614.9272460937501	-674.9029541015626	-312.6991882324219	634.9871826171876	-754.9774169921876	-367.2911376953126	624.6663208007814	-1003.770385742188	-340.0456848144532	626.3988037109376	-755.2428588867189	-483.9551086425782	732.0698242187501	-864.7393188476565	-516.2904052734376	712.3518066406251	-887.5585937500002	-504.9607238769532	712.4316406250001	-831.6662597656252	-322.8392333984376	544.8184814453126	-1168.94482421875	-245.2199401855469	540.0650024414064	-1209.037963867188	-215.3208923339844	570.1774291992189	-1184.944702148438	-219.5861358642579	487.7823181152345	-1228.609008789063	-175.7960357666016	451.339813232422	-1240.424926757813	-131.3708801269532	433.0726318359376	-1139.985229492188	-167.2831268310547	277.0140075683594	-1164.0126953125	-242.0693664550782	253.3261718750001	-1206.403564453125	-206.1203918457032	239.3753662109376	-1185.742065429688	-237.927474975586	174.637939453125	-1137.835815429688	-368.9293212890626	83.73123168945314	-1121.346923828125	-309.5177612304688	96.40359497070315	-1061.548828125	-405.0372009277345	44.21837234497071	-1055.300659179688	-204.0243835449219	45.53653717041016	-1124.023803710938	-217.3604583740235	50.17473602294923	-1172.989990234375	-270.7681579589844	31.45780944824219	-1204.987182617188	-299.2133789062501	518.9436645507814	-640.1904907226564	-234.8660278320313	520.4381713867189	-622.8085327148439	-215.2881774902344	548.9399414062501	-629.4600219726564	-183.689193725586	450.3909606933595	-617.9613037109376	-96.19583129882815	402.4885253906251	-613.6419677734376	-73.92878723144533	401.8179016113282	-727.1523437500001	-121.1606521606446	247.3196258544922	-658.6105346679689	-237.4904785156251	221.4116973876954	-651.8707885742189	-194.4788513183594	201.3161773681641	-655.5354614257814	-204.3307495117188	154.3197174072266	-688.6279907226564	-329.9982910156251	89.68636322021486	-692.7330932617189	-277.9105529785157	84.82865142822267	-761.5419921875001	-377.3330078125001	41.25425338745118	-772.8713378906252	-179.5372467041016	46.62101745605469	-678.0913085937501	-199.7326812744141	52.7549514770508	-637.0040283203126	-257.8195800781251	36.68072128295899	-611.2590332031251	
515	2.57	23.22758102416993	1218.03271484375	-929.0603637695315	-133.4050445556641	1158.646362304688	-984.7557373046877	-117.9671325683594	1146.59814453125	-839.4217529296877	-175.5463256835938	1043.560668945313	-901.5401000976565	-361.0542602539063	838.3819580078127	-882.256042480469	-66.50994110107423	941.0885009765627	-924.0498657226565	-90.17861175537111	999.1863403320315	-1079.972290039063	-171.8977355957032	897.2856445312502	-1274.932373046875	-161.8736419677735	849.4287109375002	-1263.631469726563	-191.6713409423828	843.409606933594	-1314.314331054688	-219.2070617675782	789.681091308594	-1337.285400390625	-296.6382751464844	823.4522705078127	-1344.94677734375	-397.2950134277345	672.5206298828126	-1118.68798828125	-345.1462402343751	626.6708374023439	-1144.291748046875	-380.7777404785157	654.0503540039064	-1045.092529296875	-39.99501037597657	986.7918090820315	-768.3999023437502	-63.80885314941408	863.5603637695315	-582.1128540039064	-75.70092773437501	817.4021606445315	-589.0834350585939	-82.87487030029298	820.3107910156252	-529.5543212890626	-114.4867172241211	760.9277343750001	-494.3522033691407	-186.1810913085938	798.9051513671877	-465.4951782226564	-300.8873901367188	661.7852783203126	-679.3142089843751	-247.5265808105469	614.5459594726564	-674.9804687500001	-312.9375610351563	634.4385986328126	-754.9263305664064	-367.3735351562501	623.9777832031251	-1003.717651367188	-340.2243652343751	625.8582153320314	-755.2637939453126	-483.9978942871095	731.0562744140626	-864.6217041015627	-516.3798828125001	711.7728271484376	-887.5415649414065	-505.1693420410157	711.9301757812501	-831.6494140625002	-323.3680725097657	544.8513183593751	-1168.915771484375	-245.2303314208985	539.8948974609376	-1209.0029296875	-215.4771423339844	570.0582275390626	-1184.917602539063	-219.5791168212891	487.649383544922	-1228.617309570313	-175.7727508544922	451.2964782714845	-1240.4521484375	-131.4231109619141	432.9060058593751	-1140.069702148438	-167.2636413574219	276.9587097167969	-1164.035522460938	-241.9985656738282	253.2250366210938	-1206.407836914063	-206.153060913086	239.3451385498047	-1185.747802734375	-237.8359985351563	174.6796875	-1137.853271484375	-368.7794799804688	83.4551467895508	-1121.463989257813	-309.4354248046876	96.3578796386719	-1061.550659179688	-405.0531616210939	44.18699264526368	-1055.313720703125	-204.0224304199219	45.54160690307618	-1124.024658203125	-217.3566436767579	50.19308853149415	-1172.943115234375	-270.6970825195313	31.39527320861817	-1204.993774414063	-299.2323913574219	518.5993041992189	-640.2040405273439	-234.7881774902344	520.1825561523439	-622.8386230468751	-215.3404846191407	548.6618652343751	-629.6228637695314	-183.6509246826172	450.270721435547	-618.1016235351564	-96.09507751464847	402.3528442382814	-613.7460327148439	-73.80385589599611	401.6351623535157	-727.2380371093751	-121.0389404296875	247.2065887451172	-658.6220703125001	-237.3823242187501	221.3814239501954	-651.9182739257814	-194.346908569336	201.2179565429688	-655.6437377929689	-204.2723693847657	154.2004547119141	-688.7241821289064	-329.9732666015626	89.71382904052736	-692.7528076171876	-277.9072570800782	84.81372070312501	-761.5736694335939	-377.2778625488282	41.26715850830079	-772.905456542969	-179.5702209472657	46.61682891845704	-678.0783691406251	-199.6897888183594	52.70846557617189	-637.0391235351564	-257.7951660156251	36.67806243896485	-611.2338867187501	
516	2.575	23.30510520935059	1217.013549804688	-929.0838623046877	-133.10498046875	1157.69921875	-984.7718505859377	-117.7445678710938	1145.651611328125	-839.3796386718752	-175.306640625	1042.709106445313	-901.5359497070315	-360.9848327636719	837.5452880859377	-882.2392578125002	-66.21833801269533	940.3579711914065	-923.999206542969	-89.99856567382814	998.2575683593752	-1079.999145507813	-171.8109741210938	896.5418090820315	-1274.92626953125	-161.7374877929688	848.482849121094	-1263.732177734375	-191.6069030761719	842.768737792969	-1314.502685546875	-219.3313598632813	789.0438232421877	-1337.395141601563	-296.4212341308594	822.2923583984377	-1345.082763671875	-397.5316467285157	672.0993652343751	-1118.693603515625	-345.2578125000001	626.0046386718751	-1144.316040039063	-380.7917480468751	653.5600585937501	-1045.020751953125	-39.63311004638673	985.7783203125002	-768.4434204101565	-63.61850357055665	862.373718261719	-582.0884399414064	-75.53368377685548	816.5224609375002	-589.1312255859376	-82.64634704589845	819.151794433594	-529.5959472656251	-114.4068222045899	759.8908081054689	-494.3582763671876	-186.0781555175782	797.9968261718752	-465.5561828613282	-300.9721984863282	661.3507080078126	-679.3800659179689	-247.700668334961	614.0835571289064	-675.0902099609376	-313.5751342773438	633.6400756835939	-755.7611694335939	-367.4042663574219	623.1145629882814	-1003.662353515625	-340.2443542480469	625.2146606445314	-755.4774169921876	-483.948944091797	730.7525634765626	-864.6568603515627	-516.3900146484376	711.0267944335939	-887.5682373046877	-505.2175903320314	711.2454833984376	-831.6149902343752	-323.4095458984376	544.5370483398439	-1168.906005859375	-245.2760009765626	539.7708129882814	-1208.981689453125	-215.4999237060547	569.8977050781251	-1184.926147460938	-219.5306091308594	487.5671386718751	-1228.662841796875	-175.7307434082032	451.2189025878907	-1240.52197265625	-131.3951721191407	432.7080383300782	-1140.14404296875	-167.2090454101563	276.9162902832032	-1164.114379882813	-242.1039733886719	253.3068542480469	-1206.421752929688	-205.9675598144532	239.4838256835938	-1185.71533203125	-237.8252868652344	174.6416015625	-1137.8603515625	-368.7353210449219	83.44850921630861	-1121.464111328125	-309.4490356445313	96.36763000488284	-1061.54833984375	-405.0015258789064	44.23063659667969	-1055.341064453125	-204.0426483154297	45.54743957519532	-1124.048583984375	-217.4756011962891	50.09611892700197	-1172.949462890625	-270.6491088867188	31.39874649047852	-1204.965942382813	-299.8173217773438	517.8069458007814	-640.7543945312501	-234.7340850830079	519.8841552734376	-622.9498901367189	-215.3229370117188	548.3134765625001	-629.7794189453126	-183.5314331054688	450.0064697265626	-618.1697387695314	-95.96470642089845	402.2416076660157	-613.8613891601564	-73.65027618408205	401.4253540039064	-727.4238281250001	-120.9867553710938	247.2293395996094	-658.6166992187501	-237.2372131347657	221.1994171142579	-651.8815307617189	-194.2365722656251	201.225326538086	-655.7060546875001	-204.2191314697266	154.2138366699219	-688.8454589843751	-329.9555664062501	89.70809173583986	-692.7875976562501	-277.8914794921876	84.77342987060548	-761.5789184570314	-377.2721862792969	41.24036407470704	-772.8806762695315	-179.5095825195313	46.57136917114259	-678.1223144531251	-199.6112670898438	52.68208694458009	-636.9878540039064	-257.7990417480469	36.7158432006836	-611.2240600585939	
